<svg xmlns="http://www.w3.org/2000/svg" fill="none" class="logo logo-icon img-svg" viewBox="0 0 256 256"><path fill="#f57a00" fill-rule="evenodd" d="M184.504 40.538A104.07 104.07 0 0 0 128.105 24a6.68 6.68 0 0 0-6.671 6.681v32.435c-32.878 3.346-58.532 31.124-58.532 64.898 0 9.232 1.917 18.016 5.374 25.975L45.975 166.75a90.9 90.9 0 0 1 5.545-87.356 22.34 22.34 0 0 0 9.753 2.225c12.393 0 22.44-10.05 22.44-22.449 0-12.398-10.047-22.449-22.44-22.449s-22.44 10.05-22.44 22.45c0 3.956 1.023 7.674 2.82 10.902a104.25 104.25 0 0 0-4.23 109.219c1.793 3.185 5.962 4.334 9.133 2.519l28.274-16.178c11.809 16.708 31.272 27.616 53.282 27.616 21.663 0 40.86-10.568 52.718-26.831l21.841 13.387a90.64 90.64 0 0 1-29.595 27.097c-14.057 8.015-30.023 12.102-46.201 11.889-1.36-11.096-10.813-19.689-22.272-19.689-12.393 0-22.44 10.051-22.44 22.449S92.21 244 104.603 244c8.583 0 16.04-4.82 19.815-11.903 19.246.667 38.532-4.041 55.272-13.585a104 104 0 0 0 38.028-37.443 6.68 6.68 0 0 0-2.259-9.097l-27.902-17.102c3.703-8.191 5.765-17.283 5.765-26.856 0-33.773-25.654-61.552-58.531-64.898V37.6a90.7 90.7 0 0 1 42.491 14.178 90.8 90.8 0 0 1 30.349 32.442c-5.185 4.112-8.511 10.468-8.511 17.602 0 12.398 10.046 22.449 22.44 22.449 12.393 0 22.44-10.051 22.44-22.449s-10.047-22.449-22.44-22.449q-.676 0-1.342.04a104.13 104.13 0 0 0-35.714-38.876M61.273 50.084c-5.017 0-9.083 4.068-9.083 9.086s4.066 9.087 9.083 9.087c5.016 0 9.083-4.069 9.083-9.087s-4.067-9.086-9.083-9.086m66.839 26.056c-28.638 0-51.853 23.225-51.853 51.874 0 28.648 23.215 51.873 51.853 51.873 28.637 0 51.853-23.225 51.853-51.873 0-28.65-23.216-51.874-51.853-51.874m93.448 16.597c-5.017 0-9.083 4.068-9.083 9.086s4.066 9.087 9.083 9.087c5.016 0 9.083-4.069 9.083-9.087s-4.067-9.086-9.083-9.086M104.603 212.465c-5.016 0-9.083 4.068-9.083 9.086s4.067 9.087 9.083 9.087 9.083-4.069 9.083-9.087-4.067-9.086-9.083-9.086" clip-rule="evenodd"/><path fill="#f57a00" fill-rule="evenodd" d="M128.112 100.968c-14.931 0-27.035 12.109-27.035 27.046s12.104 27.045 27.035 27.045 27.035-12.108 27.035-27.045-12.104-27.046-27.035-27.046m0 13.363c-7.554 0-13.678 6.126-13.678 13.683s6.124 13.683 13.678 13.683 13.678-6.126 13.678-13.683-6.124-13.683-13.678-13.683" clip-rule="evenodd"/></svg>